# xmcd
#
# Track frame offsets: 
#        150
#        20842
#        35444
#        49180
#        66158
#        83224
#        99935
#        114616
#        134691
#        152367
#        166448
#        182260
#        201344
#        220431
#        234554
#        251614
#        266492
#        279771
#        292519
#        309548
#
# Disc length: 4318 seconds
#
# Revision: 1
# Processed by: cddbd v1.5.2PL0 Copyright (c) Steve Scherf et al.
# Submitted via: ExactAudioCopy v1.3
#
DISCID=1710dc14
DTITLE=Various Artist - Ministry of Sound: Throwback R&B Disc 2
DYEAR=2015
DGENRE=R&B
TTITLE0=Faith Evans  - Love Like This
TTITLE1=Montell Jordan - This Is How We Do It
TTITLE2=Mark Morrison - Return Of The Mack
TTITLE3=LL Cool J  - Phenomenon
TTITLE4=Mary J. Blige - Family Affair
TTITLE5=Notorious B.I.G. Feat. Puff Daddy and Mase - Mo Money Mo Problem
TTITLE5=s
TTITLE6=Mase - Feel So Good
TTITLE7=112 Feat. The Notorious B.I.G. and Mase - Only You (Bad Boy Remi
TTITLE7=x)
TTITLE8=Backstreet Feat Dr. Dre  - No Diggity
TTITLE9=Salt 'N' Pepa Feat En Vogue   - Whatta Man
TTITLE10=Bobby Brown  - Every Little Step
TTITLE11=Bell Biv DeVoe  - Poison
TTITLE12=Heavy D and The Boyz Feat Aaron Hall - Now That We Found Love
TTITLE13=Fabulous Feat Mike Shorey and Lil' Mo - Can't Let You Go
TTITLE14=Shola Ama  - You're The One I Love
TTITLE15=Beverly Knight  - Flavour Of The Old School
TTITLE16=Brandy  - I Wanna Be Down
TTITLE17=Sweetbox - Everything's Gonna Be Alright
TTITLE18=Craig David - 7 Days
TTITLE19=Lutricia McNeal - Ain't That Just The Way
EXTD=
EXTT0=
EXTT1=
EXTT2=
EXTT3=
EXTT4=
EXTT5=
EXTT6=
EXTT7=
EXTT8=
EXTT9=
EXTT10=
EXTT11=
EXTT12=
EXTT13=
EXTT14=
EXTT15=
EXTT16=
EXTT17=
EXTT18=
EXTT19=
PLAYORDER=
